<svg xmlns="http://www.w3.org/2000/svg" width="28" height="28" fill="none" viewBox="0 0 28 28">
  <path stroke="#939393" stroke-linecap="round" stroke-width="1.5" d="M25.648 11.667c-.043-1.53-.188-2.505-.678-3.337-.697-1.184-1.952-1.843-4.463-3.16l-2.333-1.224C16.126 2.87 15.102 2.333 14 2.333c-1.102 0-2.126.538-4.174 1.613L7.493 5.17C4.983 6.487 3.727 7.146 3.03 8.33c-.697 1.183-.697 2.656-.697 5.602v.136c0 2.946 0 4.419.697 5.602.697 1.184 1.952 1.842 4.463 3.16l2.333 1.224c2.048 1.075 3.072 1.613 4.174 1.613 1.102 0 2.126-.538 4.174-1.613l2.333-1.224c2.51-1.317 3.766-1.976 4.463-3.16.49-.832.635-1.807.678-3.337M24.5 8.75 14 14m0 0L3.5 8.75M14 14v11.083"/>
</svg>
