<svg xmlns="http://www.w3.org/2000/svg" width="28" height="28" fill="none" viewBox="0 0 28 28">
  <path stroke="#393F42" stroke-linecap="round" stroke-linejoin="round" stroke-width="1.5" d="M8.66 23.124a.892.892 0 1 1 0 1.783.892.892 0 0 1 0-1.783Zm13.127 0a.892.892 0 1 1 0 1.783.892.892 0 0 1 0-1.783Z" clip-rule="evenodd"/>
  <path stroke="#393F42" stroke-linecap="round" stroke-linejoin="round" stroke-width="1.5" d="m3.208 3.792 2.427.42 1.123 13.385a2.103 2.103 0 0 0 2.097 1.928h12.73a2.105 2.105 0 0 0 2.083-1.803l1.107-7.651a1.564 1.564 0 0 0-1.548-1.789H6.025m10.455 4.312h3.235"/>
</svg>
