<svg xmlns="http://www.w3.org/2000/svg" width="28" height="28" fill="none" viewBox="0 0 28 28">
  <path stroke="#939393" stroke-linecap="round" stroke-linejoin="round" stroke-width="1.5" d="M13.721 24.33a40.646 40.646 0 0 1-7.025-5.47 13.99 13.99 0 0 1-3.344-5.332c-1.255-3.903.21-8.37 4.314-9.693a6.974 6.974 0 0 1 6.33 1.067 6.985 6.985 0 0 1 6.329-1.067c4.103 1.323 5.58 5.79 4.325 9.693a13.99 13.99 0 0 1-3.344 5.331 40.648 40.648 0 0 1-7.026 5.47l-.274.171-.285-.17Z" clip-rule="evenodd"/>
  <path stroke="#939393" stroke-linecap="round" stroke-linejoin="round" stroke-width="1.5" d="M18.363 8.229a3.245 3.245 0 0 1 2.236 2.825"/>
</svg>
