<svg xmlns="http://www.w3.org/2000/svg" width="28" height="28" fill="none" viewBox="0 0 28 28">
  <circle cx="13.509" cy="8.491" r="5.574" stroke="#939393" stroke-linecap="round" stroke-linejoin="round" stroke-width="1.5"/>
  <path stroke="#939393" stroke-linecap="round" stroke-linejoin="round" stroke-width="1.5" d="M4.667 21.818a2.584 2.584 0 0 1 .256-1.132c.534-1.068 2.04-1.634 3.29-1.89.9-.192 1.814-.32 2.733-.384 1.702-.15 3.413-.15 5.115 0 .92.064 1.833.193 2.734.384 1.25.256 2.755.77 3.289 1.89a2.65 2.65 0 0 1 0 2.275c-.534 1.121-2.04 1.634-3.29 1.88-.9.2-1.813.332-2.733.394a30.105 30.105 0 0 1-4.165.065c-.32 0-.63 0-.95-.065a17.995 17.995 0 0 1-2.723-.395c-1.26-.245-2.755-.758-3.3-1.88a2.659 2.659 0 0 1-.256-1.142Z" clip-rule="evenodd"/>
</svg>
