<?xml version="1.0" encoding="utf-8"?>
<svg id="svg2" viewBox="0 0 500 670" xmlns="http://www.w3.org/2000/svg">
  <desc>Source: openclipart.org/detail/209545</desc>
  <path stroke="#939393" stroke-linecap="round" stroke-linejoin="round" stroke-width="1.5" d="M 249.351 501.078 C 204.035 473.191 161.919 440.388 123.772 403.296 C 96.869 376.482 76.418 343.876 63.995 307.981 C 41.56 238.21 67.748 158.358 141.112 134.708 C 179.688 122.302 221.894 129.417 254.267 153.782 C 286.658 129.453 328.828 122.338 367.405 134.708 C 440.75 158.358 467.153 238.21 444.718 307.981 C 432.295 343.876 411.844 376.464 384.941 403.278 C 346.776 440.371 304.66 473.173 259.344 501.06 L 254.446 504.117 L 249.351 501.078 Z" clip-rule="evenodd" style="fill: rgb(186, 218, 85);"/>
  <path stroke="#939393" stroke-linecap="round" stroke-linejoin="round" stroke-width="1.5" d="M 332.332 213.256 C 354.641 220.477 370.408 240.391 372.303 263.755" style="fill: rgb(186, 218, 85);"/>
</svg>